<svg xmlns="http://www.w3.org/2000/svg" xmlns:svg="http://www.w3.org/2000/svg" id="svg1550" width="660" height="200" version="1.1" viewBox="0 0 174.625 52.917"><defs id="defs1544"><marker id="marker9471" orient="auto" refX="0" refY="0" style="overflow:visible"><path id="path9469" style="fill:#093b59;fill-opacity:1;fill-rule:evenodd;stroke:#093b59;stroke-width:.625;stroke-linejoin:round;stroke-opacity:1" d="M 8.7185878,4.0337352 -2.2072895,0.01601326 8.7185884,-4.0017078 c -1.7454984,2.3720609 -1.7354408,5.6174519 -6e-7,8.035443 z" transform="scale(-0.6)"/></marker><marker id="marker9461" orient="auto" refX="0" refY="0" style="overflow:visible"><path id="path9459" d="M 0,0 5,-5 -12.5,0 5,5 Z" style="fill:#093b59;fill-opacity:1;fill-rule:evenodd;stroke:#093b59;stroke-width:1pt;stroke-opacity:1" transform="matrix(-0.8,0,0,-0.8,-10,0)"/></marker><marker id="marker9451" orient="auto" refX="0" refY="0" style="overflow:visible"><path id="path9449" d="M 0,0 5,-5 -12.5,0 5,5 Z" style="fill:#093b59;fill-opacity:1;fill-rule:evenodd;stroke:#093b59;stroke-width:1pt;stroke-opacity:1" transform="matrix(-0.8,0,0,-0.8,-10,0)"/></marker><marker id="marker9441" orient="auto" refX="0" refY="0" style="overflow:visible"><path id="path9439" d="M 0,0 5,-5 -12.5,0 5,5 Z" style="fill:#093b59;fill-opacity:1;fill-rule:evenodd;stroke:#093b59;stroke-width:1pt;stroke-opacity:1" transform="matrix(-0.8,0,0,-0.8,-10,0)"/></marker><marker id="marker9431" orient="auto" refX="0" refY="0" style="overflow:visible"><path id="path9429" d="M 0,0 5,-5 -12.5,0 5,5 Z" style="fill:#093b59;fill-opacity:1;fill-rule:evenodd;stroke:#093b59;stroke-width:1pt;stroke-opacity:1" transform="matrix(-0.8,0,0,-0.8,-10,0)"/></marker><marker id="marker9421" orient="auto" refX="0" refY="0" style="overflow:visible"><path id="path9419" d="M 0,0 5,-5 -12.5,0 5,5 Z" style="fill:#093b59;fill-opacity:1;fill-rule:evenodd;stroke:#093b59;stroke-width:1pt;stroke-opacity:1" transform="matrix(-0.8,0,0,-0.8,-10,0)"/></marker><marker id="marker9411" orient="auto" refX="0" refY="0" style="overflow:visible"><path id="path9409" d="M 0,0 5,-5 -12.5,0 5,5 Z" style="fill:#093b59;fill-opacity:1;fill-rule:evenodd;stroke:#093b59;stroke-width:1pt;stroke-opacity:1" transform="matrix(-0.8,0,0,-0.8,-10,0)"/></marker><marker id="marker9401" orient="auto" refX="0" refY="0" style="overflow:visible"><path id="path9399" d="M 0,0 5,-5 -12.5,0 5,5 Z" style="fill:#093b59;fill-opacity:1;fill-rule:evenodd;stroke:#093b59;stroke-width:1pt;stroke-opacity:1" transform="matrix(-0.8,0,0,-0.8,-10,0)"/></marker><marker id="marker9391" orient="auto" refX="0" refY="0" style="overflow:visible"><path id="path9389" d="M 0,0 5,-5 -12.5,0 5,5 Z" style="fill:#093b59;fill-opacity:1;fill-rule:evenodd;stroke:#093b59;stroke-width:1pt;stroke-opacity:1" transform="matrix(-0.8,0,0,-0.8,-10,0)"/></marker><marker id="marker9381" orient="auto" refX="0" refY="0" style="overflow:visible"><path id="path9379" d="M 0,0 5,-5 -12.5,0 5,5 Z" style="fill:#000;fill-opacity:1;fill-rule:evenodd;stroke:#000;stroke-width:1pt;stroke-opacity:1" transform="matrix(0.4,0,0,0.4,4,0)"/></marker><marker id="marker9371" orient="auto" refX="0" refY="0" style="overflow:visible"><path id="path9369" d="M 0,0 5,-5 -12.5,0 5,5 Z" style="fill:#000;fill-opacity:1;fill-rule:evenodd;stroke:#000;stroke-width:1pt;stroke-opacity:1" transform="matrix(0.4,0,0,0.4,4,0)"/></marker><marker style="overflow:visible" id="marker8989" orient="auto" refX="0" refY="0"><path transform="matrix(0.4,0,0,0.4,4,0)" style="fill:#000;fill-opacity:1;fill-rule:evenodd;stroke:#000;stroke-width:1pt;stroke-opacity:1" id="path8987" d="M 0,0 5,-5 -12.5,0 5,5 Z"/></marker><marker style="overflow:visible" id="marker8823" orient="auto" refX="0" refY="0"><path transform="matrix(0.8,0,0,0.8,10,0)" style="fill:#000;fill-opacity:1;fill-rule:evenodd;stroke:#000;stroke-width:1pt;stroke-opacity:1" id="path8821" d="M 0,0 5,-5 -12.5,0 5,5 Z"/></marker><marker style="overflow:visible" id="Arrow1Mstart" orient="auto" refX="0" refY="0"><path transform="matrix(0.4,0,0,0.4,4,0)" style="fill:#000;fill-opacity:1;fill-rule:evenodd;stroke:#000;stroke-width:1pt;stroke-opacity:1" id="path2577" d="M 0,0 5,-5 -12.5,0 5,5 Z"/></marker><marker style="overflow:visible" id="marker8427" orient="auto" refX="0" refY="0"><path transform="matrix(-0.8,0,0,-0.8,-10,0)" style="fill:#093b59;fill-opacity:1;fill-rule:evenodd;stroke:#093b59;stroke-width:1pt;stroke-opacity:1" id="path8425" d="M 0,0 5,-5 -12.5,0 5,5 Z"/></marker><marker style="overflow:visible" id="marker8417" orient="auto" refX="0" refY="0"><path transform="matrix(-0.8,0,0,-0.8,-10,0)" style="fill:#093b59;fill-opacity:1;fill-rule:evenodd;stroke:#093b59;stroke-width:1pt;stroke-opacity:1" id="path8415" d="M 0,0 5,-5 -12.5,0 5,5 Z"/></marker><marker style="overflow:visible" id="marker8407" orient="auto" refX="0" refY="0"><path transform="matrix(-0.8,0,0,-0.8,-10,0)" style="fill:#093b59;fill-opacity:1;fill-rule:evenodd;stroke:#093b59;stroke-width:1pt;stroke-opacity:1" id="path8405" d="M 0,0 5,-5 -12.5,0 5,5 Z"/></marker><marker style="overflow:visible" id="marker8397" orient="auto" refX="0" refY="0"><path transform="matrix(-0.8,0,0,-0.8,-10,0)" style="fill:#093b59;fill-opacity:1;fill-rule:evenodd;stroke:#093b59;stroke-width:1pt;stroke-opacity:1" id="path8395" d="M 0,0 5,-5 -12.5,0 5,5 Z"/></marker><marker style="overflow:visible" id="marker8387" orient="auto" refX="0" refY="0"><path transform="matrix(-0.8,0,0,-0.8,-10,0)" style="fill:#093b59;fill-opacity:1;fill-rule:evenodd;stroke:#093b59;stroke-width:1pt;stroke-opacity:1" id="path8385" d="M 0,0 5,-5 -12.5,0 5,5 Z"/></marker><marker style="overflow:visible" id="marker8377" orient="auto" refX="0" refY="0"><path transform="matrix(-0.8,0,0,-0.8,-10,0)" style="fill:#093b59;fill-opacity:1;fill-rule:evenodd;stroke:#093b59;stroke-width:1pt;stroke-opacity:1" id="path8375" d="M 0,0 5,-5 -12.5,0 5,5 Z"/></marker><marker style="overflow:visible" id="marker8367" orient="auto" refX="0" refY="0"><path transform="matrix(-0.8,0,0,-0.8,-10,0)" style="fill:#093b59;fill-opacity:1;fill-rule:evenodd;stroke:#093b59;stroke-width:1pt;stroke-opacity:1" id="path8365" d="M 0,0 5,-5 -12.5,0 5,5 Z"/></marker><marker style="overflow:visible" id="marker8357" orient="auto" refX="0" refY="0"><path transform="matrix(-0.8,0,0,-0.8,-10,0)" style="fill:#093b59;fill-opacity:1;fill-rule:evenodd;stroke:#093b59;stroke-width:1pt;stroke-opacity:1" id="path8355" d="M 0,0 5,-5 -12.5,0 5,5 Z"/></marker><marker id="marker4357" orient="auto" refX="0" refY="0" style="overflow:visible"><path id="path4355" style="fill:#093b59;fill-opacity:1;fill-rule:evenodd;stroke:#093b59;stroke-width:.625;stroke-linejoin:round;stroke-opacity:1" d="M 8.7185878,4.0337352 -2.2072895,0.01601326 8.7185884,-4.0017078 c -1.7454984,2.3720609 -1.7354408,5.6174519 -6e-7,8.035443 z" transform="scale(-0.6)"/></marker><marker id="marker4347" orient="auto" refX="0" refY="0" style="overflow:visible"><path id="path4345" style="fill:#093b59;fill-opacity:1;fill-rule:evenodd;stroke:#093b59;stroke-width:.625;stroke-linejoin:round;stroke-opacity:1" d="M 8.7185878,4.0337352 -2.2072895,0.01601326 8.7185884,-4.0017078 c -1.7454984,2.3720609 -1.7354408,5.6174519 -6e-7,8.035443 z" transform="scale(-0.6)"/></marker><marker style="overflow:visible" id="marker4337" orient="auto" refX="0" refY="0"><path id="path4335" d="M 8.7185878,4.0337352 -2.2072895,0.01601326 8.7185884,-4.0017078 c -1.7454984,2.3720609 -1.7354408,5.6174519 -6e-7,8.035443 z" transform="scale(-0.6)" style="fill:#093b59;fill-opacity:1;fill-rule:evenodd;stroke:#093b59;stroke-width:.625;stroke-linejoin:round;stroke-opacity:1"/></marker><marker id="marker4327" orient="auto" refX="0" refY="0" style="overflow:visible"><path id="path4325" style="fill:#093b59;fill-opacity:1;fill-rule:evenodd;stroke:#093b59;stroke-width:.625;stroke-linejoin:round;stroke-opacity:1" d="M 8.7185878,4.0337352 -2.2072895,0.01601326 8.7185884,-4.0017078 c -1.7454984,2.3720609 -1.7354408,5.6174519 -6e-7,8.035443 z" transform="scale(-0.6)"/></marker><marker style="overflow:visible" id="marker4317" orient="auto" refX="0" refY="0"><path id="path4315" d="M 8.7185878,4.0337352 -2.2072895,0.01601326 8.7185884,-4.0017078 c -1.7454984,2.3720609 -1.7354408,5.6174519 -6e-7,8.035443 z" transform="scale(-0.6)" style="fill:#093b59;fill-opacity:1;fill-rule:evenodd;stroke:#093b59;stroke-width:.625;stroke-linejoin:round;stroke-opacity:1"/></marker><marker id="marker4307" orient="auto" refX="0" refY="0" style="overflow:visible"><path id="path4305" style="fill:#093b59;fill-opacity:1;fill-rule:evenodd;stroke:#093b59;stroke-width:.625;stroke-linejoin:round;stroke-opacity:1" d="M 8.7185878,4.0337352 -2.2072895,0.01601326 8.7185884,-4.0017078 c -1.7454984,2.3720609 -1.7354408,5.6174519 -6e-7,8.035443 z" transform="scale(-0.6)"/></marker><marker style="overflow:visible" id="marker4297" orient="auto" refX="0" refY="0"><path id="path4295" d="M 8.7185878,4.0337352 -2.2072895,0.01601326 8.7185884,-4.0017078 c -1.7454984,2.3720609 -1.7354408,5.6174519 -6e-7,8.035443 z" transform="scale(-0.6)" style="fill:#093b59;fill-opacity:1;fill-rule:evenodd;stroke:#093b59;stroke-width:.625;stroke-linejoin:round;stroke-opacity:1"/></marker><marker id="marker4287" orient="auto" refX="0" refY="0" style="overflow:visible"><path id="path4285" style="fill:#093b59;fill-opacity:1;fill-rule:evenodd;stroke:#093b59;stroke-width:.625;stroke-linejoin:round;stroke-opacity:1" d="M 8.7185878,4.0337352 -2.2072895,0.01601326 8.7185884,-4.0017078 c -1.7454984,2.3720609 -1.7354408,5.6174519 -6e-7,8.035443 z" transform="scale(-0.6)"/></marker><marker style="overflow:visible" id="marker4277" orient="auto" refX="0" refY="0"><path id="path4275" d="M 8.7185878,4.0337352 -2.2072895,0.01601326 8.7185884,-4.0017078 c -1.7454984,2.3720609 -1.7354408,5.6174519 -6e-7,8.035443 z" transform="scale(-0.6)" style="fill:#093b59;fill-opacity:1;fill-rule:evenodd;stroke:#093b59;stroke-width:.625;stroke-linejoin:round;stroke-opacity:1"/></marker><marker style="overflow:visible" id="marker4257" orient="auto" refX="0" refY="0"><path transform="matrix(0.8,0,0,0.8,10,0)" style="fill:#000;fill-opacity:1;fill-rule:evenodd;stroke:#000;stroke-width:1pt;stroke-opacity:1" id="path4255" d="M 0,0 5,-5 -12.5,0 5,5 Z"/></marker><marker id="marker3123" orient="auto" refX="0" refY="0" style="overflow:visible"><path id="path3121" d="M 0,0 5,-5 -12.5,0 5,5 Z" style="fill:#000;fill-opacity:1;fill-rule:evenodd;stroke:#000;stroke-width:1pt;stroke-opacity:1" transform="matrix(0.8,0,0,0.8,10,0)"/></marker><marker style="overflow:visible" id="marker10546" orient="auto" refX="0" refY="0"><path id="path10544" d="M 8.7185878,4.0337352 -2.2072895,0.01601326 8.7185884,-4.0017078 c -1.7454984,2.3720609 -1.7354408,5.6174519 -6e-7,8.035443 z" transform="scale(-0.6)" style="fill:#093b59;fill-opacity:1;fill-rule:evenodd;stroke:#093b59;stroke-width:.625;stroke-linejoin:round;stroke-opacity:1"/></marker><marker id="marker1201" orient="auto" refX="0" refY="0" style="overflow:visible"><path id="path1199" d="M 0,0 5,-5 -12.5,0 5,5 Z" style="fill:#000;fill-opacity:1;fill-rule:evenodd;stroke:#000;stroke-width:1pt;stroke-opacity:1" transform="matrix(-0.8,0,0,-0.8,-10,0)"/></marker></defs><metadata id="metadata1547"/><g id="layer1"><path id="path10342" d="M 43.675662,32.501853 56.10686,21.787953" style="fill:#093b59;fill-opacity:1;fill-rule:evenodd;stroke:#093b59;stroke-width:.264583;stroke-linecap:butt;stroke-linejoin:round;stroke-miterlimit:4;stroke-dasharray:none;stroke-dashoffset:0;stroke-opacity:1;marker-end:url(#marker10546)"/><path style="fill:#97d1f4;fill-opacity:1;stroke:#000;stroke-width:.499999;stroke-linecap:round;stroke-linejoin:round;stroke-miterlimit:4;stroke-dasharray:none;stroke-dashoffset:0;stroke-opacity:1;paint-order:normal" id="path6646" d="M 26.550467,32.504749 A 16.914434,16.914434 0 0 1 43.464901,15.590315 16.914434,16.914434 0 0 1 60.379335,32.504749 H 43.464901 Z"/><path style="fill:#093b59;fill-opacity:1;fill-rule:evenodd;stroke:#093b59;stroke-width:.264583;stroke-linecap:butt;stroke-linejoin:round;stroke-miterlimit:4;stroke-dasharray:none;stroke-dashoffset:0;stroke-opacity:1;marker-end:url(#marker8377)" id="path10344" d="m 43.635042,32.515974 8.316119,-14.14795"/><path id="path6640" d="M 23.594665,10.027732 43.721423,32.502033" style="fill:none;fill-rule:evenodd;stroke:#000;stroke-width:.500063;stroke-linecap:butt;stroke-linejoin:round;stroke-miterlimit:4;stroke-dasharray:none;stroke-dashoffset:0;stroke-opacity:1;marker-start:url(#marker8989);paint-order:normal"/><path id="path8788" d="m 43.476764,32.502033 -15.34711,-5.81278" style="fill:#093b59;fill-opacity:1;fill-rule:evenodd;stroke:#093b59;stroke-width:.264583;stroke-linecap:butt;stroke-linejoin:round;stroke-miterlimit:4;stroke-dasharray:none;stroke-dashoffset:0;stroke-opacity:1;marker-end:url(#marker8427)"/><path style="fill:#093b59;fill-opacity:1;fill-rule:evenodd;stroke:#093b59;stroke-width:.264583;stroke-linecap:butt;stroke-linejoin:round;stroke-miterlimit:4;stroke-dasharray:none;stroke-dashoffset:0;stroke-opacity:1;marker-end:url(#marker8417)" id="path9052" d="M 43.522524,32.501853 31.091325,21.787953"/><path id="path9334" d="M 43.563145,32.515974 35.247027,18.368024" style="fill:#093b59;fill-opacity:1;fill-rule:evenodd;stroke:#093b59;stroke-width:.264583;stroke-linecap:butt;stroke-linejoin:round;stroke-miterlimit:4;stroke-dasharray:none;stroke-dashoffset:0;stroke-opacity:1;marker-end:url(#marker8407)"/><path style="fill:#093b59;fill-opacity:1;fill-rule:evenodd;stroke:#093b59;stroke-width:.264583;stroke-linecap:butt;stroke-linejoin:round;stroke-miterlimit:4;stroke-dasharray:none;stroke-dashoffset:0;stroke-opacity:1;marker-end:url(#marker8397)" id="path9598" d="M 43.599093,32.544705 40.659115,16.399153"/><path style="fill:#093b59;fill-opacity:1;fill-rule:evenodd;stroke:#093b59;stroke-width:.264583;stroke-linecap:butt;stroke-linejoin:round;stroke-miterlimit:4;stroke-dasharray:none;stroke-dashoffset:0;stroke-opacity:1;marker-end:url(#marker8357)" id="path10340" d="m 43.721423,32.502033 15.34711,-5.81278"/><path id="path10346" d="M 43.599093,32.544705 46.539069,16.399153" style="fill:#093b59;fill-opacity:1;fill-rule:evenodd;stroke:#093b59;stroke-width:.264583;stroke-linecap:butt;stroke-linejoin:round;stroke-miterlimit:4;stroke-dasharray:none;stroke-dashoffset:0;stroke-opacity:1;marker-end:url(#marker8387)"/><rect id="rect12084" width="76.729" height="1.588" x="5.809" y="32.505" rx="0" ry="0" style="fill:#97999b;fill-opacity:1;stroke:none;stroke-width:.499999;stroke-linecap:round;stroke-linejoin:round;stroke-miterlimit:4;stroke-dasharray:1,.499999;stroke-dashoffset:0;stroke-opacity:1;paint-order:normal"/><path id="path6638" d="M 5.808947,32.504753 H 82.538106" style="fill:none;fill-rule:evenodd;stroke:#000;stroke-width:.499999;stroke-linecap:butt;stroke-linejoin:miter;stroke-miterlimit:4;stroke-dasharray:none;stroke-opacity:1"/><path id="path2931" d="M 43.675662,32.501853 56.10686,21.787953" style="fill:#093b59;fill-opacity:1;fill-rule:evenodd;stroke:#093b59;stroke-width:.264583;stroke-linecap:butt;stroke-linejoin:round;stroke-miterlimit:4;stroke-dasharray:none;stroke-dashoffset:0;stroke-opacity:1;marker-end:url(#marker8367)"/><text id="text3047" x="17.597" y="14.253" style="font-style:normal;font-weight:400;font-size:4.93889px;line-height:1.25;font-family:sans-serif;letter-spacing:0;word-spacing:0;fill:#000;fill-opacity:1;stroke:none;stroke-width:.264583" xml:space="preserve"><tspan style="font-size:4.93889px;stroke-width:.264583" id="tspan3045" x="17.597" y="14.253">V</tspan></text><text xml:space="preserve" style="font-style:normal;font-weight:400;font-size:4.93889px;line-height:1.25;font-family:sans-serif;letter-spacing:0;word-spacing:0;fill:#000;fill-opacity:1;stroke:none;stroke-width:.264583" id="text3051" x="60.43" y="27.858"><tspan id="tspan3049" x="60.43" y="27.858" style="font-size:4.93889px;stroke-width:.264583">L</tspan></text><path style="fill:none;fill-rule:evenodd;stroke:#000;stroke-width:.500063;stroke-linecap:butt;stroke-linejoin:round;stroke-miterlimit:4;stroke-dasharray:none;stroke-dashoffset:0;stroke-opacity:1;marker-start:url(#Arrow1Mstart);paint-order:normal" id="path3253" d="M 43.602907,3.8106957 43.721423,32.502033"/><text xml:space="preserve" style="font-style:normal;font-weight:400;font-size:4.93889px;line-height:1.25;font-family:sans-serif;letter-spacing:0;word-spacing:0;fill:#000;fill-opacity:1;stroke:none;stroke-width:.264583" id="text3425" x="37.458" y="6.493"><tspan id="tspan3423" x="37.458" y="6.493" style="font-size:4.93889px;stroke-width:.264583">N</tspan></text><path style="fill:none;fill-rule:evenodd;stroke:#000;stroke-width:.500063;stroke-linecap:butt;stroke-linejoin:round;stroke-miterlimit:4;stroke-dasharray:none;stroke-dashoffset:0;stroke-opacity:1;marker-start:url(#marker9381);paint-order:normal" id="path9335" d="m 107.88336,10.027732 20.12675,22.474301"/><rect style="fill:#97999b;fill-opacity:1;stroke:none;stroke-width:.499999;stroke-linecap:round;stroke-linejoin:round;stroke-miterlimit:4;stroke-dasharray:1,.499999;stroke-dashoffset:0;stroke-opacity:1;paint-order:normal" id="rect9349" width="76.729" height="1.588" x="90.098" y="32.505" rx="0" ry="0"/><path style="fill:none;fill-rule:evenodd;stroke:#000;stroke-width:.499999;stroke-linecap:butt;stroke-linejoin:miter;stroke-miterlimit:4;stroke-dasharray:none;stroke-opacity:1" id="path9351" d="M 90.097639,32.504753 H 166.8268"/><text xml:space="preserve" style="font-style:normal;font-weight:400;font-size:4.93889px;line-height:1.25;font-family:sans-serif;letter-spacing:0;word-spacing:0;fill:#000;fill-opacity:1;stroke:none;stroke-width:.264583" id="text9357" x="101.886" y="14.253"><tspan id="tspan9355" x="101.886" y="14.253" style="font-size:4.93889px;stroke-width:.264583">V</tspan></text><text id="text9361" x="144.718" y="40.913" style="font-style:normal;font-weight:400;font-size:4.93889px;line-height:1.25;font-family:sans-serif;letter-spacing:0;word-spacing:0;fill:#000;fill-opacity:1;stroke:none;stroke-width:.264583" xml:space="preserve"><tspan style="font-size:4.93889px;stroke-width:.264583" id="tspan9359" x="144.718" y="40.913">L</tspan></text><path id="path9363" d="m 127.8916,3.8106957 0.11851,28.6913373" style="fill:none;fill-rule:evenodd;stroke:#000;stroke-width:.500063;stroke-linecap:butt;stroke-linejoin:round;stroke-miterlimit:4;stroke-dasharray:none;stroke-dashoffset:0;stroke-opacity:1;marker-start:url(#marker9371);paint-order:normal"/><text id="text9367" x="121.747" y="6.493" style="font-style:normal;font-weight:400;font-size:4.93889px;line-height:1.25;font-family:sans-serif;letter-spacing:0;word-spacing:0;fill:#000;fill-opacity:1;stroke:none;stroke-width:.264583" xml:space="preserve"><tspan style="font-size:4.93889px;stroke-width:.264583" id="tspan9365" x="121.747" y="6.493">N</tspan></text><path style="fill:#093b59;fill-opacity:1;fill-rule:evenodd;stroke:#093b59;stroke-width:.264583;stroke-linecap:butt;stroke-linejoin:round;stroke-miterlimit:4;stroke-dasharray:none;stroke-dashoffset:0;stroke-opacity:1;marker-end:url(#marker9471)" id="path9329" d="m 127.96435,32.502213 12.4312,10.7139"/><path id="path9331" d="m 110.83916,-32.499317 a 16.914434,16.914434 0 0 1 16.91443,-16.914435 16.914434,16.914434 0 0 1 16.91444,16.914435 h -16.91444 z" transform="scale(1,-1)" style="fill:#97d1f4;fill-opacity:1;stroke:#000;stroke-width:.499999;stroke-linecap:round;stroke-linejoin:round;stroke-miterlimit:4;stroke-dasharray:none;stroke-dashoffset:0;stroke-opacity:1;paint-order:normal"/><path id="path9333" d="m 127.92373,32.488092 8.31612,14.14795" style="fill:#093b59;fill-opacity:1;fill-rule:evenodd;stroke:#093b59;stroke-width:.264583;stroke-linecap:butt;stroke-linejoin:round;stroke-miterlimit:4;stroke-dasharray:none;stroke-dashoffset:0;stroke-opacity:1;marker-end:url(#marker9461)"/><path style="fill:#093b59;fill-opacity:1;fill-rule:evenodd;stroke:#093b59;stroke-width:.264583;stroke-linecap:butt;stroke-linejoin:round;stroke-miterlimit:4;stroke-dasharray:none;stroke-dashoffset:0;stroke-opacity:1;marker-end:url(#marker9451)" id="path9337" d="m 127.76546,32.502033 -15.34711,5.81278"/><path id="path9339" d="m 127.81122,32.502213 -12.4312,10.7139" style="fill:#093b59;fill-opacity:1;fill-rule:evenodd;stroke:#093b59;stroke-width:.264583;stroke-linecap:butt;stroke-linejoin:round;stroke-miterlimit:4;stroke-dasharray:none;stroke-dashoffset:0;stroke-opacity:1;marker-end:url(#marker9441)"/><path style="fill:#093b59;fill-opacity:1;fill-rule:evenodd;stroke:#093b59;stroke-width:.264583;stroke-linecap:butt;stroke-linejoin:round;stroke-miterlimit:4;stroke-dasharray:none;stroke-dashoffset:0;stroke-opacity:1;marker-end:url(#marker9431)" id="path9341" d="m 127.85184,32.488092 -8.31612,14.14795"/><path id="path9343" d="m 127.88778,32.459361 -2.93997,16.145552" style="fill:#093b59;fill-opacity:1;fill-rule:evenodd;stroke:#093b59;stroke-width:.264583;stroke-linecap:butt;stroke-linejoin:round;stroke-miterlimit:4;stroke-dasharray:none;stroke-dashoffset:0;stroke-opacity:1;marker-end:url(#marker9421)"/><path id="path9345" d="m 128.01011,32.502033 15.34711,5.81278" style="fill:#093b59;fill-opacity:1;fill-rule:evenodd;stroke:#093b59;stroke-width:.264583;stroke-linecap:butt;stroke-linejoin:round;stroke-miterlimit:4;stroke-dasharray:none;stroke-dashoffset:0;stroke-opacity:1;marker-end:url(#marker9411)"/><path style="fill:#093b59;fill-opacity:1;fill-rule:evenodd;stroke:#093b59;stroke-width:.264583;stroke-linecap:butt;stroke-linejoin:round;stroke-miterlimit:4;stroke-dasharray:none;stroke-dashoffset:0;stroke-opacity:1;marker-end:url(#marker9401)" id="path9347" d="m 127.88778,32.459361 2.93998,16.145552"/><path style="fill:#093b59;fill-opacity:1;fill-rule:evenodd;stroke:#093b59;stroke-width:.264583;stroke-linecap:butt;stroke-linejoin:round;stroke-miterlimit:4;stroke-dasharray:none;stroke-dashoffset:0;stroke-opacity:1;marker-end:url(#marker9391)" id="path9353" d="m 127.96435,32.502213 12.4312,10.7139"/></g></svg>